.
..............................Site Info...........................

 -   http://www.scenetime.com  *_*    

Scenetime .Always on time . friendly online private torrent community ..

     We care to share . Join us on  http://www.scenetime.com 

    Be the first to get new release at  http://www.scenetime.com

        Seed back for speed


...................................NFO:.................................................[img]http://img35.imageshack.us/img35/2201/mqdefaultf.jpg[/img]

The late Mike Reid doing a stand up live show on this rare video from 1992, recorded at the Beck Theatre, Hayes.

lo NiNe here  wanted to share this as i think a few of you will find this guy funny.  

General
Complete name                            : Mike.Reid.Live.Uncensored.1992.webrip.avi
Format                                   : AVI
Format/Info                              : Audio Video Interleave
File size                                : 465 MiB
Duration                                 : 59mn 23s
Overall bit rate                         : 1 095 Kbps
Writing application                      : MEncoder 1.0rc1-3.4.2
Writing library                          : MPlayer

Video
ID                                       : 0
Format                                   : MPEG-4 Visual
Codec ID                                 : MP43
Codec ID/Info                            : Microsoft MPEG-4 v3 (pre-standard)
Codec ID/Hint                            : Microsoft
Duration                                 : 59mn 23s
Bit rate                                 : 954 Kbps
Width                                    : 480 pixels
Height                                   : 360 pixels
Display aspect ratio                     : 4:3
Frame rate                               : 29.970 fps
Compression mode                         : Lossy
Bits/(Pixel*Frame)                       : 0.184
Stream size                              : 405 MiB (87%)

Audio
ID                                       : 1
Format                                   : MPEG Audio
Format version                           : Version 1
Format profile                           : Layer 3
Mode                                     : Joint stereo
Mode extension                           : MS Stereo
Codec ID                                 : 55
Codec ID/Hint                            : MP3
Duration                                 : 59mn 23s
Bit rate mode                            : Constant
Bit rate                                 : 128 Kbps
Channel(s)                               : 2 channels
Sampling rate                            : 44.1 KHz
Compression mode                         : Lossy
Stream size                              : 54.4 MiB (12%)
Alignment                                : Aligned on interleaves
Interleave, duration                     : 26 ms (0.78 video frame)
Interleave, preload duration             : 522 ms
Writing library                          : LAME3.99.5

was in 4 parts on a popular video site . all i did was take the mp4
convert the 4 files to make em work in joiner  
then joined the 4 parts ..  simples 

  the video was old and not the best but its well worth a watch.

samples there if ya want to check it out. 

respect to all p2p   this ones just for laughs.